<?xml version="1.0" encoding="utf-8"?>
<svg xmlns="http://www.w3.org/2000/svg" viewBox="0 0 500 500">
  <g transform="matrix(0.089286, 0, 0, -0.089286, 0.000099, 411.663818)" fill="#000000" stroke="none">
    <path d="M 694.999 4591.31 C 479.999 4529.56 363.999 4336.59 323.999 3975.74 C 313.999 3883.11 309.999 3692.07 309.999 3279.11 C 309.999 2661.61 300.999 2484.08 267.999 2368.3 C 237.999 2267.97 166.999 2200.41 70.999 2184.99 L -0.001 2173.4 L -0.001 1812.55 L -0.001 1451.7 L 70.999 1440.12 C 166.999 1424.69 237.999 1357.16 267.999 1256.8 C 300.999 1141.01 309.999 963.489 309.999 345.981 C 309.999 -269.59 317.999 -400.81 362.999 -574.49 C 390.999 -680.61 458.999 -809.91 516.999 -865.87 C 610.999 -958.49 657.999 -970.07 982.999 -979.72 L 1290 -989.37 L 1290 -630.44 L 1290 -271.52 L 1070 -271.52 C 831.999 -271.52 793.999 -258.01 767.999 -171.18 C 757.999 -138.38 753.999 37.23 749.999 548.605 C 743.999 1179.61 742.999 1231.71 721.999 1337.85 C 684.999 1532.75 618.999 1660.11 506.999 1746.94 C 477.999 1770.1 454.999 1799.03 454.999 1812.55 C 454.999 1826.05 477.999 1855 506.999 1878.17 C 618.999 1965 684.999 2092.35 721.999 2287.24 C 742.999 2393.37 743.999 2445.5 749.999 3076.5 C 753.999 3587.86 757.999 3763.47 767.999 3796.27 C 793.999 3883.11 831.999 3896.61 1070 3896.61 L 1290 3896.61 L 1290 4253.61 L 1290 4610.61 L 1018 4608.68 C 867.999 4606.75 722.999 4599.02 694.999 4591.31 Z" style=""/>
    <path d="M 4309.99 4253.36 L 4309.99 3896.13 L 4529.98 3896.13 C 4700.98 3896.13 4758.98 3890.32 4785.98 3867.16 C 4846.98 3818.9 4849.98 3782.2 4849.98 3110.2 C 4849.98 2463.31 4858.98 2318.49 4903.98 2169.8 C 4945.98 2028.84 5016.98 1926.49 5122.98 1849.24 C 5161.98 1822.2 5153.98 1795.16 5091.98 1744.96 C 4980.98 1658.06 4904.98 1509.39 4872.98 1320.14 C 4858.98 1239.04 4854.98 1101.94 4850.98 545.804 C 4845.98 36.003 4841.98 -141.65 4831.98 -174.47 C 4805.98 -261.37 4767.98 -274.9 4529.98 -274.9 L 4309.99 -274.9 L 4309.99 -632.13 L 4309.99 -989.37 L 4573.98 -989.37 C 4862.98 -989.37 4973.98 -966.19 5065.98 -885.09 C 5128.98 -829.09 5192.98 -719.03 5225.98 -612.81 C 5279.98 -435.17 5281.98 -394.62 5289.98 372.003 C 5293.98 765.941 5301.98 1113.51 5306.98 1146.35 C 5324.98 1248.69 5347.98 1322.07 5373.98 1354.9 C 5407.98 1397.39 5503.98 1443.72 5556.98 1443.72 L 5599.98 1443.72 L 5599.98 1810.62 L 5599.98 2177.51 L 5556.98 2177.51 C 5503.98 2177.51 5407.98 2223.86 5373.98 2266.35 C 5347.98 2299.16 5324.98 2372.56 5306.98 2474.9 C 5301.98 2507.71 5293.98 2857.24 5289.98 3249.22 C 5281.98 4015.84 5279.98 4056.4 5225.98 4234.06 C 5192.98 4340.26 5128.98 4450.33 5065.98 4506.32 C 4973.98 4587.44 4862.98 4610.61 4573.98 4610.61 L 4309.99 4610.61 L 4309.99 4253.36 Z" style=""/>
    <path d="M 2752.54 3488.44 C 2478.85 3454.85 2309.71 3402.27 2134.42 3298.59 C 1697.76 3040.12 1444.07 2561.14 1413.31 1934.67 C 1379.49 1277.52 1593.21 691.937 1974.53 391.111 C 2103.68 290.351 2308.17 192.508 2463.47 157.462 C 2626.45 122.416 2943.18 120.954 3081.57 157.462 C 3326.04 220.26 3518.24 344.381 3639.72 516.697 C 3655.09 537.139 3667.39 551.74 3668.93 547.36 C 3668.93 542.98 3691.99 461.207 3719.66 364.827 L 3768.87 189.592 L 3979.51 185.204 L 4190.16 180.826 L 4190.16 1087.68 L 4190.16 1993.09 L 3529 1993.09 L 2867.85 1993.09 L 2870.93 1727.31 L 2875.54 1460.07 L 3218.41 1455.69 L 3559.76 1452.77 L 3559.76 1322.8 C 3559.76 1166.55 3522.85 1040.96 3444.45 931.418 C 3338.35 782.475 3181.52 705.077 2963.18 696.317 C 2491.15 675.874 2199.01 979.618 2131.35 1560.83 C 2032.95 2390.29 2374.29 2961.26 2944.74 2923.29 C 3166.14 2908.68 3329.12 2815.23 3445.98 2635.61 L 3501.33 2549.45 L 3627.41 2594.73 C 3695.06 2618.09 3814.99 2660.45 3890.33 2686.73 C 3967.22 2713.01 4041.01 2739.29 4054.86 2745.14 C 4079.46 2753.91 4076.38 2767.05 4021.02 2867.81 C 3814.99 3244.57 3430.6 3465.07 2944.74 3488.44 C 2864.78 3491.35 2778.67 3491.35 2752.54 3488.44 Z" style=""/>
  </g>
</svg>